<?xml version="1.0" encoding="utf-8"?>
<!-- Generator: Adobe Illustrator 15.1.0, SVG Export Plug-In . SVG Version: 6.00 Build 0)  -->
<!DOCTYPE svg PUBLIC "-//W3C//DTD SVG 1.1//EN" "http://www.w3.org/Graphics/SVG/1.1/DTD/svg11.dtd">
<svg version="1.1" xmlns="http://www.w3.org/2000/svg" xmlns:xlink="http://www.w3.org/1999/xlink" x="0px" y="0px"
	 width="260.018px" height="151.285px" viewBox="0 0 260.018 151.285" enable-background="new 0 0 260.018 151.285"
	 xml:space="preserve">
<g id="Layer_1">
</g>
<g id="Layer_2">
	<path fill="#716558" stroke="#603813" stroke-width="3" stroke-miterlimit="10" d="M248.355,0v9.987h-5.837V0h-11.662v9.987h-5.833
		V0h-11.662v9.987h-5.832V0h-11.666v19.956h0.059l-0.059,0.058l4.639,4.643v50.986h-5.081v-8.83h-11.328v8.83h-8.587v-8.83h-11.328
		v8.83h-8.59v-8.83H144.26v8.83h-8.59v-8.83h-11.327v8.83h-8.589v-8.83h-11.328v8.83h-8.588v-8.83H84.51v8.83h-8.589v-8.83H64.593
		v8.83h-5.08V24.538l4.583-4.582h0.059V0H52.492v9.987h-5.836V0H34.994v9.987H29.16V0H17.498v9.987h-5.832V0H0v19.956h0.059
		L0,20.014l4.638,4.643v50.986v75.643h54.875h33.62v-18.813h0.355c0-20.167,16.365-36.518,36.525-36.518
		c20.151,0,36.511,16.351,36.511,36.518h0.36v18.813h33.617h54.874V75.643V24.538l4.583-4.582h0.059V0H248.355z M42.367,133.34
		h-20.58v-27.438h0.343c0-5.496,4.455-9.947,9.948-9.947c5.49,0,9.946,4.451,9.946,9.947h0.343V133.34z M238.23,133.34h-20.58
		v-27.438h0.343c0-5.496,4.456-9.947,9.948-9.947c5.491,0,9.945,4.451,9.945,9.947h0.344V133.34z"/>
</g>
</svg>
