<?xml version="1.0" encoding="utf-8"?>
<!-- Generator: Adobe Illustrator 15.1.0, SVG Export Plug-In . SVG Version: 6.00 Build 0)  -->
<!DOCTYPE svg PUBLIC "-//W3C//DTD SVG 1.1//EN" "http://www.w3.org/Graphics/SVG/1.1/DTD/svg11.dtd">
<svg version="1.1" id="Layer_1" xmlns="http://www.w3.org/2000/svg" xmlns:xlink="http://www.w3.org/1999/xlink" x="0px" y="0px"
	 width="100px" height="100px" viewBox="0 0 100 100" enable-background="new 0 0 100 100" xml:space="preserve">
<g>
	<polygon display="none" points="71.805,8.105 70.387,0 64.812,6.055 56.671,4.897 60.704,12.067 57.088,19.459 65.154,17.834 
		71.068,23.56 72.016,15.384 79.288,11.531 	"/>
	<polygon display="none" points="82.93,55.607 82.294,51.225 79.198,54.398 74.838,53.646 76.898,57.566 74.838,61.486 
		79.198,60.736 82.294,63.91 82.93,59.527 86.9,57.562 	"/>
	<polygon display="none" points="8.267,18.704 11.591,17.399 14.549,19.396 14.332,15.833 17.145,13.635 13.689,12.738 
		12.467,9.382 10.549,12.394 6.98,12.521 9.249,15.275 	"/>
	<polygon display="none" points="27.616,28.636 31.195,24.794 36.387,25.562 33.838,20.969 36.177,16.268 31.024,17.274 
		27.275,13.599 26.638,18.813 21.982,21.243 26.743,23.458 	"/>
	<path display="none" d="M66.325,30.626c-1.142-1.462-2.824-2.927-4.886-4.22c-2.062-1.291-4.109-2.167-5.935-2.555
		c-1.726-0.314-3.644-0.524-4.995,1.311L-5,113.75l15.75,12l56.566-90.051C68.379,33.68,67.359,32.05,66.325,30.626z M48.743,58.71
		c-0.89-1.386-2.593-3.003-4.812-4.396c-2.217-1.389-4.412-2.224-6.052-2.418l15.5-24.725c0.225-0.046,0.917-0.074,1.902,0.231
		c1.215,0.324,2.754,1,4.295,1.971c1.768,1.097,3.186,2.374,3.973,3.401c0.396,0.508,0.623,0.95,0.684,1.174
		c0.009,0.02,0.016,0.038,0.016,0.053L48.743,58.71z"/>
	<path d="M66.325,30.626c-1.142-1.462-2.824-2.927-4.886-4.22c-2.062-1.291-4.109-2.167-5.935-2.555
		c-1.726-0.314-3.644-0.524-4.995,1.311L-5,113.75l15.75,12l56.566-90.051C68.379,33.68,67.359,32.05,66.325,30.626z"/>
</g>
</svg>
